<?xml version="1.0" standalone="no"?>
<!DOCTYPE svg PUBLIC "-//W3C//DTD SVG 20010904//EN"
 "http://www.w3.org/TR/2001/REC-SVG-20010904/DTD/svg10.dtd">
<svg version="1.0" xmlns="http://www.w3.org/2000/svg"
 width="200.000000pt" height="200.000000pt" viewBox="0 0 200.000000 200.000000"
 preserveAspectRatio="xMidYMid meet">

<g transform="translate(0.000000,200.000000) scale(0.100000,-0.100000)"
fill="#000000" stroke="none">
<path d="M862 1660 c-41 -25 -72 -76 -72 -117 l0 -33 -182 0 c-206 0 -234 -7
-275 -69 -23 -34 -23 -35 -23 -425 0 -432 0 -434 64 -475 l29 -19 -144 -74
c-127 -64 -144 -76 -144 -98 0 -18 6 -26 23 -28 32 -5 1679 826 1685 850 5 18
-16 48 -33 48 -4 0 -9 42 -12 93 -4 107 -23 149 -78 178 -30 17 -58 19 -216
19 l-181 0 -7 39 c-3 22 -18 53 -32 71 -46 54 -69 60 -226 60 -125 0 -147 -3
-176 -20z m320 -61 c16 -9 48 -64 48 -84 0 -3 -83 -5 -185 -5 l-185 0 0 24 c0
13 12 35 26 50 26 25 30 26 151 26 70 0 133 -5 145 -11z m-667 -169 c19 -31
-69 -130 -116 -130 -39 0 -18 113 23 130 31 12 85 12 93 0z m1047 -35 c29 -57
47 -75 96 -97 45 -20 61 -55 20 -43 -39 12 -92 59 -113 101 l-20 41 -395 5
c-217 3 -436 3 -487 0 l-91 -4 -6 -33 c-7 -34 -64 -108 -99 -127 -12 -6 -37
-15 -55 -19 -27 -6 -33 -4 -30 9 2 10 19 20 42 25 55 13 121 80 136 137 l11
45 486 0 485 0 20 -40z m120 18 c11 -9 18 -30 18 -50 l0 -34 -29 16 c-31 15
-71 64 -71 85 0 17 58 5 82 -17z m-577 -353 c-9 -14 -16 -9 -215 142 -96 73
-176 141 -178 151 -3 12 69 -36 197 -133 111 -83 199 -155 196 -160z m-25 206
c151 -66 216 -100 221 -114 12 -32 21 -32 94 -6 38 14 97 28 131 31 63 6 134
-2 134 -15 0 -6 -703 -363 -815 -414 -38 -18 -35 -14 35 53 41 39 120 104 175
145 136 102 146 110 140 126 -3 8 -84 72 -180 143 -243 181 -239 185 65 51z
m-450 -618 c0 -18 -31 -6 -64 26 -53 49 -44 62 14 19 28 -20 50 -41 50 -45z
m-193 35 c31 -14 73 -64 73 -85 0 -5 -18 -8 -40 -8 -51 0 -90 34 -90 80 0 34
8 36 57 13z"/>
<path d="M1125 761 c-568 -286 -691 -351 -693 -369 -2 -14 2 -22 12 -22 8 0
83 34 167 75 l151 75 457 0 c599 0 554 -24 559 306 l4 212 29 13 c22 8 29 18
27 32 -2 11 -7 22 -13 23 -5 2 -320 -153 -700 -345z m573 217 c-6 -20 -750
-391 -773 -386 -13 3 113 71 370 201 215 108 394 196 398 196 5 1 7 -5 5 -11z
m2 -317 c0 -34 -39 -71 -76 -71 -28 0 -29 3 -8 39 15 26 59 60 77 61 4 0 7
-13 7 -29z"/>
<path d="M1832 938 c-6 -8 -12 -86 -14 -185 -3 -194 -9 -210 -84 -248 -37 -19
-64 -20 -443 -25 -357 -4 -405 -7 -414 -21 -6 -9 -7 -24 -4 -33 6 -16 41 -17
429 -14 l423 3 50 26 c36 18 59 39 80 74 l30 48 3 185 c3 145 0 187 -10 193
-19 12 -34 11 -46 -3z"/>
</g>
</svg>
